<svg width="120" height="127" viewBox="0 0 120 127" fill="none" xmlns="http://www.w3.org/2000/svg">
<path d="M91.6493 126H12.2697C6.24781 126 1.3208 121.073 1.3208 115.051V11.9489C1.3208 5.92701 6.24781 1 12.2697 1H91.6493C97.6712 1 102.598 5.92701 102.598 11.9489V115.051C102.598 121.073 97.6712 126 91.6493 126Z" stroke="black" stroke-width="2" stroke-miterlimit="10"/>
<path d="M12.361 26.7938H88.7023" stroke="black" stroke-width="2" stroke-miterlimit="10"/>
<path d="M12.361 39.2391H65.4723" stroke="black" stroke-width="2" stroke-miterlimit="10"/>
<path d="M11.9504 50.0327H88.2916" stroke="black" stroke-width="2" stroke-miterlimit="10"/>
<path d="M12.7716 62.4783H65.8829" stroke="black" stroke-width="2" stroke-miterlimit="10"/>
<path d="M12.7716 74.9233H89.1128" stroke="black" stroke-width="2" stroke-miterlimit="10"/>
<path d="M12.7716 87.3687H65.8829" stroke="black" stroke-width="2" stroke-miterlimit="10"/>
<path d="M106.335 46.041L69.6463 74.1941L66.3367 87.1395L80.5494 86.4901L84.0895 83.9974L117.888 60.1908C119.145 59.3006 119.375 57.5201 118.38 56.347L109.938 46.418C109.027 45.3602 107.446 45.1926 106.335 46.041Z" fill="#FF8A00" stroke="black" stroke-width="0.5" stroke-miterlimit="10"/>
<path d="M76.0247 73.5865L104.44 51.6233" stroke="#B0173E" stroke-width="0.5" stroke-miterlimit="10"/>
<path d="M78.287 78.2264L108.001 56.2632" stroke="#B0173E" stroke-width="0.5" stroke-miterlimit="10"/>
<path d="M80.8635 82.1016L111.216 59.4995" stroke="#B0173E" stroke-width="0.5" stroke-miterlimit="10"/>
<path d="M82.8012 85.4219L82.6964 82.1961L79.3553 81.5153L78.685 78.1323L76.0142 76.7812V73.3982L73.2073 72.7279V71.1045L69.4159 74.0476L66.0015 87.2443L80.696 86.9092L82.8012 85.4219Z" fill="#F3C8B9" stroke="#F9A58F" stroke-width="0.5" stroke-miterlimit="10"/>
<path d="M67.1536 83.3901C69.2693 83.8614 70.348 85.0869 70.1909 87.1921L66.012 87.3596L67.1536 83.3901Z" fill="black" stroke="black" stroke-width="0.5" stroke-miterlimit="10"/>
<path d="M113.489 63.2492L102.513 49.0365L106.524 45.9573C107.529 45.1613 108.975 45.3079 109.781 46.3029L118.6 56.5251C119.333 57.3735 118.893 59.3321 118.003 60.0233L113.489 63.2492Z" fill="#C00000"/>
<path d="M113.489 63.2492L102.513 49.0365L106.524 45.9573C107.529 45.1613 108.975 45.3079 109.781 46.3029L118.6 56.5251C119.333 57.3735 118.893 59.3321 118.003 60.0233L113.489 63.2492Z" stroke="#FF9700" stroke-width="0.75" stroke-miterlimit="10"/>
<path d="M113.489 63.2492L102.513 49.0365L106.524 45.9573C107.529 45.1613 108.975 45.3079 109.781 46.3029L118.6 56.5251C119.333 57.3735 118.893 59.3321 118.003 60.0233L113.489 63.2492Z" stroke="black" stroke-width="0.75" stroke-miterlimit="10"/>
</svg>
