<svg width="219" height="195" viewBox="0 0 219 195" fill="none" xmlns="http://www.w3.org/2000/svg">
<path d="M67.1989 61.6379L150.873 61.6379" stroke="black" stroke-width="2" stroke-miterlimit="10"/>
<path d="M67.1989 75.2804L125.407 75.2804" stroke="black" stroke-width="2" stroke-miterlimit="10"/>
<path d="M66.7441 87.1038L150.418 87.1038" stroke="black" stroke-width="2" stroke-miterlimit="10"/>
<path d="M67.6536 100.746L125.861 100.746" stroke="black" stroke-width="2" stroke-miterlimit="10"/>
<path d="M67.6536 114.389L151.327 114.389" stroke="black" stroke-width="2" stroke-miterlimit="10"/>
<path d="M67.6536 128.031L125.861 128.031" stroke="black" stroke-width="2" stroke-miterlimit="10"/>
<path d="M59.0134 98.0178L29 98.0178L29 128.031L59.0134 128.031L59.0134 98.0178Z" fill="#8DFF91" stroke="black" stroke-width="3" stroke-miterlimit="10"/>
<path d="M59.0134 58L29 58L29 88.0134L59.0134 88.0134L59.0134 58Z" fill="#F6FF90" stroke="black" stroke-width="3" stroke-miterlimit="10"/>
<path d="M164.498 88.5635L129.466 115.45L126.308 127.808L139.875 127.191L143.254 124.811L175.524 102.081C176.727 101.23 176.943 99.534 175.993 98.4116L167.933 88.9335C167.07 87.916 165.559 87.7556 164.498 88.5635Z" fill="#FF8A00" stroke="black" stroke-width="0.5" stroke-miterlimit="10"/>
<path d="M135.558 114.864L162.692 93.8977" stroke="#B0173E" stroke-width="0.5" stroke-miterlimit="10"/>
<path d="M137.717 119.292L166.083 98.3253" stroke="#B0173E" stroke-width="0.5" stroke-miterlimit="10"/>
<path d="M140.183 122.992L169.167 101.409" stroke="#B0173E" stroke-width="0.5" stroke-miterlimit="10"/>
<path d="M142.033 126.171L141.938 123.087L138.75 122.442L138.113 119.217L135.563 117.927L135.563 114.702L132.885 114.057L132.885 112.509L129.264 115.321L126 127.925L140.025 127.603L142.033 126.171Z" fill="#F3C8B9" stroke="#F9A58F" stroke-width="0.5" stroke-miterlimit="10"/>
<path d="M127.092 124.225C129.114 124.676 130.144 125.841 129.99 127.851L126 128.012L127.092 124.225Z" fill="black" stroke="black" stroke-width="0.5" stroke-miterlimit="10"/>
<path d="M171.325 104.998L160.842 91.431L164.671 88.4895C165.627 87.7248 167.014 87.8728 167.785 88.8163L176.209 98.5781C176.906 99.386 176.486 101.261 175.642 101.914L171.325 104.998Z" fill="#C00000"/>
<path d="M171.325 104.998L160.842 91.431L164.671 88.4895C165.627 87.7248 167.014 87.8728 167.785 88.8163L176.209 98.5781C176.906 99.386 176.486 101.261 175.642 101.914L171.325 104.998Z" stroke="#FF9700" stroke-width="0.75" stroke-miterlimit="10"/>
<path d="M171.325 104.998L160.842 91.431L164.671 88.4895C165.627 87.7248 167.014 87.8728 167.785 88.8163L176.209 98.5781C176.906 99.386 176.486 101.261 175.642 101.914L171.325 104.998Z" stroke="black" stroke-width="0.75" stroke-miterlimit="10"/>
</svg>
