<svg width="131" height="100" viewBox="0 0 131 100" fill="none" xmlns="http://www.w3.org/2000/svg">
<path d="M50.25 99.5C77.45 99.5 99.5 77.45 99.5 50.25C99.5 23.05 77.45 1 50.25 1C23.05 1 1 23.05 1 50.25C1 77.45 23.05 99.5 50.25 99.5Z" fill="white" stroke="black" stroke-miterlimit="10"/>
<path d="M49.386 1L51.1141 99.5" stroke="black" stroke-miterlimit="10"/>
<path d="M49.3859 1C20.0087 4.45614 14.8245 89.1316 51.114 99.5" stroke="black" stroke-miterlimit="10"/>
<path d="M49.386 1C75.307 9.64035 85.6755 71.8509 51.1141 99.5" stroke="black" stroke-miterlimit="10"/>
<path d="M1.01733 50.5439L99.4828 48.2283" stroke="black" stroke-miterlimit="10"/>
<path d="M9.64038 21.7369C39.0003 32.6755 57.3697 33.626 89.1316 20.0088" stroke="black" stroke-miterlimit="10"/>
<path d="M9.64038 78.7632C49.386 64.9386 52.8421 59.7544 87.4035 82.2193" stroke="black" stroke-miterlimit="10"/>
<path d="M129.033 53.5677L113.48 12.094L106.412 13.0963L121.965 56.298L129.033 53.5677Z" fill="#00A1C7" stroke="#00A1C7" stroke-width="3" stroke-miterlimit="10"/>
<path d="M99.4999 20.0088L111.907 53.879L85.7272 53.879L78.9705 36.9439L99.4999 20.0088Z" fill="#00A1C7" stroke="#00A1C7" stroke-width="3" stroke-miterlimit="10"/>
<path d="M78.9705 55.8316C78.7631 54.5701 73.1642 40.2444 73.1642 40.2444L66.6666 44.2017L72.6457 57.9225L78.9705 55.8316Z" fill="#00A1C7" stroke="#00A1C7" stroke-width="3" stroke-miterlimit="10"/>
<path d="M77.035 66.6666L82.2192 63.2104L89.1315 78.0027L83.0833 79.2988L77.035 66.6666Z" fill="#00A1C7" stroke="#00A1C7" stroke-width="3" stroke-miterlimit="10"/>
<path d="M59.5471 48.1592C54.5702 51.1142 56.2983 61.4826 64.9387 59.6508L59.5471 48.1592Z" fill="#00A1C7" stroke="#00A1C7" stroke-width="3" stroke-miterlimit="10"/>
</svg>
