<svg width="140" height="139" viewBox="0 0 140 139" fill="none" xmlns="http://www.w3.org/2000/svg">
<path d="M138.4 104.8L104.8 138.4L92 127.2L64.8 117.6C64.8 117.6 58.4 68 50.4 55.2L77.6 82.4C79.2 104.8 104.8 82.4 82.4 77.6L55.2 50.4C55.2 50.4 80.8 63.2 116 63.2L127.2 90.4L140 103.2L138.4 104.8Z" fill="black"/>
<path d="M95.2 124.192L104.8 133.6L133.6 104.8L124 95.2L95.2 124.192Z" fill="white" stroke="black" stroke-miterlimit="10"/>
<path d="M39.712 120.272L49.504 111.984C51.504 110.288 51.76 107.248 50.064 105.248L43.84 97.8879C42.144 95.8879 39.104 95.6319 37.104 97.3279L27.312 105.616C25.312 107.312 25.056 110.352 26.752 112.352L32.976 119.712C34.672 121.728 37.696 121.968 39.712 120.272Z" fill="black"/>
<path d="M38.1119 48.2719L47.9039 39.9839C49.9039 38.2879 50.1599 35.2479 48.4639 33.2479L42.2399 25.8879C40.5439 23.8879 37.5039 23.6319 35.5039 25.3279L25.7119 33.6159C23.7119 35.3119 23.4559 38.3519 25.1519 40.3519L31.3759 47.7119C33.0719 49.7279 36.0959 49.9679 38.1119 48.2719Z" fill="black"/>
<path d="M110.112 49.8719L119.904 41.5839C121.904 39.8879 122.16 36.8479 120.464 34.8479L114.24 27.4879C112.544 25.4879 109.504 25.2319 107.504 26.9279L97.712 35.2159C95.712 36.9119 95.456 39.9519 97.152 41.9519L103.376 49.3119C105.072 51.3279 108.096 51.5679 110.112 49.8719Z" fill="black"/>
<path d="M68.8 12.8C72.3346 12.8 75.2 9.93462 75.2 6.4C75.2 2.86538 72.3346 0 68.8 0C65.2654 0 62.4 2.86538 62.4 6.4C62.4 9.93462 65.2654 12.8 68.8 12.8Z" fill="black"/>
<path d="M6.4 76.8C9.93462 76.8 12.8 73.9346 12.8 70.4C12.8 66.8654 9.93462 64 6.4 64C2.86538 64 0 66.8654 0 70.4C0 73.9346 2.86538 76.8 6.4 76.8Z" fill="black"/>
<path d="M4.80005 68.7999L68.8 6.3999" stroke="black" stroke-width="3" stroke-miterlimit="10"/>
<path d="M39.1999 109.6C-13.3601 55.216 67.9999 -7.20001 111.2 37.6" stroke="black" stroke-width="3" stroke-miterlimit="10"/>
</svg>
