<svg width="216" height="168" viewBox="0 0 216 168" fill="none" xmlns="http://www.w3.org/2000/svg">
<path d="M65.9244 26.2521L21.3811 26.2521L21.3811 140.792L65.9244 140.792L65.9244 26.2521Z" fill="white" stroke="black" stroke-width="4" stroke-miterlimit="10"/>
<path d="M21.3811 51.7053L46.8344 51.7053" stroke="black" stroke-width="4" stroke-miterlimit="10"/>
<path d="M18.1993 83.522L43.6527 83.522" stroke="black" stroke-width="4" stroke-miterlimit="10"/>
<path d="M18.1993 115.339L43.6527 115.339" stroke="black" stroke-width="4" stroke-miterlimit="10"/>
<path d="M85.0143 141.852L85.0143 114.16L92.0552 114.013L85.0143 65.4925L110.468 33.6759L137.718 65.4042L128.88 114.013L136.245 114.013L135.921 141.852" fill="#E8E8E8"/>
<path d="M85.0143 141.852L85.0143 114.16L92.0552 114.013L85.0143 65.4925L110.468 33.6759L137.718 65.4042L128.88 114.013L136.245 114.013L135.921 141.852" stroke="black" stroke-width="4" stroke-miterlimit="10"/>
<path d="M110.468 25L110.468 39.5384L110.468 78.2192" stroke="black" stroke-width="4" stroke-miterlimit="10"/>
<path d="M84.6902 114.013L136.245 114.013" stroke="black" stroke-width="4" stroke-miterlimit="10"/>
<path d="M137.718 115.486L84.6902 115.486L84.6902 142L137.718 142L137.718 115.486Z" fill="#ABABAB" stroke="black" stroke-width="4" stroke-miterlimit="10"/>
<path d="M155.01 33.6759L155.01 98.4581L190.76 98.4581L190.76 66.067L155.01 33.6759Z" fill="#E8E8E8" stroke="black" stroke-width="4" stroke-miterlimit="10"/>
<path d="M199.554 141.853L199.554 106.398C199.554 104.645 198.862 102.966 197.624 101.743L194.811 98.9296C193.78 97.8985 192.366 97.3093 190.907 97.3093L156.587 97.3093C154.569 97.3093 152.683 98.2668 151.476 99.8723L149.899 101.979C149.075 103.083 148.633 104.409 148.633 105.779L148.633 141.853L199.554 141.853V141.853Z" fill="#8C8C8C" stroke="black" stroke-width="4" stroke-miterlimit="10"/>
</svg>
