<svg width="104" height="110" viewBox="0 0 104 110" fill="none" xmlns="http://www.w3.org/2000/svg">
<path d="M6.40754 33.3839L96.1603 21.422C97.9751 21.1792 99.2531 19.5306 99.023 17.7286L97.2977 3.90086C97.0677 2.06057 95.3552 0.757021 93.5021 1.03818L3.83879 14.5081C2.04961 14.7765 0.797193 16.4251 1.02723 18.2143L2.66305 30.5468C2.90587 32.3616 4.58002 33.6268 6.40754 33.3839Z" fill="white" stroke="#191919" stroke-width="2" stroke-miterlimit="10"/>
<path d="M6.91881 31.2754H96.4032C99.5726 31.2754 102.141 33.8441 102.141 37.0135V102.855C102.141 106.025 99.5726 108.593 96.4032 108.593H6.91881C3.74941 108.593 1.18066 106.025 1.18066 102.855V37.0135C1.18066 33.8441 3.74941 31.2754 6.91881 31.2754Z" fill="#918F8E" stroke="black" stroke-width="2" stroke-miterlimit="10"/>
<path d="M79.47 96.4526H25.1429C22.8553 96.4526 21.0022 94.5995 21.0022 92.3119V69.9217C21.0022 67.6341 22.8553 65.781 25.1429 65.781H79.47C81.7575 65.781 83.6106 67.6341 83.6106 69.9217V92.2992C83.6106 94.5868 81.7575 96.4526 79.47 96.4526Z" fill="#F0F0F0" stroke="black" stroke-width="2" stroke-miterlimit="10"/>
<path d="M7.03382 31.2754H96.2499C99.5087 31.2754 102.141 33.908 102.141 37.1669V54.9181H1.18066V37.1286C1.18066 33.8953 3.80052 31.2754 7.03382 31.2754Z" fill="white" stroke="#191919" stroke-width="2" stroke-miterlimit="10"/>
<path d="M1.18066 54.918L20.9894 31.4414H5.65361L2.44587 33.4223L1.18066 38.8665V54.918Z" fill="black"/>
<path d="M18.395 54.918L37.4881 31.4414H55.7633L38.306 54.918H18.395Z" fill="black"/>
<path d="M52.9006 54.918L71.9937 31.4414H90.2689L72.8116 54.918H52.9006Z" fill="black"/>
<path d="M23.8264 10.9299L38.4593 28.6044L54.3319 26.4958L39.0728 8.64233L23.8264 10.9299Z" fill="black"/>
<path d="M53.2201 7.47927L67.853 26.0484L83.7256 23.8247L68.4664 5.07666L53.2201 7.47927Z" fill="black"/>
<path d="M2.01118 15.4026L19.1362 31.2879L3.78757 32.5915L2.75241 30.879L1.03992 17.3451L1.51276 16.0288L2.01118 15.4026Z" fill="black"/>
<path d="M29.2963 72.8098H68.9138" stroke="black" stroke-width="2" stroke-miterlimit="10"/>
<path d="M29.9353 81.1169H50.383" stroke="black" stroke-width="2" stroke-miterlimit="10"/>
</svg>
