<svg width="114" height="99" viewBox="0 0 114 99" fill="none" xmlns="http://www.w3.org/2000/svg">
<path d="M32.62 1.30999L1.33 33.81C0.230005 34.96 0.230005 36.77 1.33 37.92L32.62 70.42C34.47 72.34 37.71 71.03 37.71 68.37L37.71 60.6L37.71 53.5C37.71 52.74 37.42 52.01 36.89 51.45L24.04 38.01C22.91 36.83 22.95 34.95 24.14 33.82L36.79 21.8C37.38 21.24 37.71 20.47 37.71 19.65L37.71 3.35999C37.72 0.699986 34.47 -0.610015 32.62 1.30999Z" fill="black"/>
<path d="M81.3801 28.53L112.67 61.03C113.77 62.18 113.77 63.99 112.67 65.14L81.3801 97.64C79.5301 99.56 76.29 98.25 76.29 95.59L76.29 87.83L76.29 80.73C76.29 79.97 76.58 79.24 77.11 78.68L89.97 65.23C91.1 64.05 91.06 62.17 89.87 61.04L77.22 49.02C76.63 48.46 76.3 47.69 76.3 46.87L76.3 30.59C76.28 27.92 79.5301 26.62 81.3801 28.53Z" fill="black"/>
<path d="M78.55 4.09998L63.06 4.09998L33.52 98.55L51.53 98.55L80.73 4.09998L78.55 4.09998Z" fill="black"/>
</svg>
